<svg width="24" height="32" viewBox="0 0 24 32" fill="none" xmlns="http://www.w3.org/2000/svg">
<path fill-rule="evenodd" clip-rule="evenodd" d="M24 5.25744V7.39685C23.7352 7.53488 23.4709 7.67387 23.2055 7.81058C22.8099 8.01444 22.5074 8.31071 22.3245 8.73193C22.2202 8.97193 22.1509 9.21942 22.1502 9.48307C22.1497 9.66621 22.1549 9.84964 22.1666 10.0323C22.2011 10.5779 22.1722 11.1215 22.116 11.6635C22.0642 12.1626 21.9729 12.6553 21.8494 13.1413C21.6804 13.8065 21.4512 14.4488 21.1596 15.0671C20.7934 15.8436 20.3419 16.5634 19.8037 17.2252C19.5217 17.572 19.2206 17.9002 18.8946 18.203C18.8246 18.268 18.8026 18.3287 18.8149 18.4226C18.8531 18.7135 18.8842 19.0053 18.9156 19.2972C18.9455 19.5766 18.9721 19.8564 19.001 20.136C19.0323 20.4408 19.0648 20.7454 19.0964 21.05C19.1252 21.3296 19.1531 21.6093 19.1819 21.8888C19.2082 22.145 19.2359 22.401 19.2618 22.6571C19.2891 22.9262 19.3141 23.1956 19.3419 23.4648C19.3745 23.7798 19.4097 24.0946 19.4422 24.4096C19.4748 24.7249 19.5049 25.0405 19.5373 25.3559C19.5699 25.6733 19.6051 25.9905 19.6372 26.3082C19.6695 26.6262 19.6978 26.9446 19.7308 27.2625C19.7679 27.6211 19.8096 27.979 19.8468 28.3376C19.9009 28.8607 19.9522 29.3841 20.0053 29.9073C20.0528 30.3742 20.1006 30.841 20.1494 31.3077C20.1735 31.5387 20.2002 31.7692 20.2258 32H20.1806C20.1647 31.9901 20.1498 31.9766 20.1324 31.9708C19.9993 31.9269 19.8633 31.8908 19.7325 31.8404C19.417 31.719 19.1038 31.5913 18.7897 31.4659C18.0614 31.1751 17.3332 30.8838 16.6048 30.5933C15.9135 30.3176 15.222 30.0426 14.5306 29.7672C13.8626 29.5012 13.1943 29.2361 12.527 28.9684C12.464 28.9431 12.4102 28.9436 12.3479 28.9711C12.2195 29.0278 12.0878 29.0765 11.9575 29.1284C11.3243 29.3802 10.6911 29.6315 10.0582 29.8838C9.28311 30.1928 8.50847 30.5031 7.73333 30.8121C6.88879 31.1489 6.04397 31.4849 5.19921 31.821C5.11784 31.8534 5.03596 31.8844 4.95402 31.9152C4.8772 31.944 4.79996 31.9717 4.72293 32H4.67775C4.70333 31.7692 4.73005 31.5386 4.75421 31.3076C4.80331 30.8384 4.85084 30.3688 4.89936 29.8994C4.96136 29.2993 5.02378 28.6992 5.08599 28.0991C5.14527 27.527 5.20498 26.9551 5.2637 26.383C5.32056 25.829 5.37593 25.2748 5.43287 24.7208C5.50113 24.0565 5.57096 23.3923 5.63915 22.728C5.69652 22.1689 5.75181 21.6096 5.80939 21.0504C5.8619 20.54 5.91649 20.0297 5.9695 19.5194C5.98703 19.3501 6.00335 19.1806 6.01831 19.0111C6.02159 18.9734 6.03157 18.9582 6.07147 18.9445C6.1485 18.918 6.22054 18.8753 6.29351 18.8369C6.82252 18.5584 7.3509 18.2788 7.88098 18.0026C7.90528 17.9899 7.94917 17.9966 7.97511 18.011C8.45617 18.2806 8.95646 18.5026 9.47849 18.6738C9.99596 18.8434 10.5248 18.9579 11.0633 19.0223C11.5745 19.0833 12.0883 19.0938 12.6009 19.0534C13.559 18.9779 14.4799 18.7446 15.3603 18.3438C16.0707 18.0204 16.7262 17.6055 17.3222 17.0939C18.1942 16.3455 18.8912 15.4502 19.4105 14.4088C19.7848 13.6582 20.0467 12.8675 20.1929 12.038C20.3034 11.4124 20.3563 10.7805 20.318 10.1438C20.3035 9.90202 20.2807 9.66085 20.2611 9.41945C20.2601 9.40719 20.2551 9.39529 20.2504 9.37692C13.5018 12.9172 6.75704 16.4556 0.00164063 19.9995V19.9188C0.00164063 19.2574 0.00242446 18.5959 0.000284939 17.9346C0.000284939 17.8768 0.0188136 17.8495 0.0677673 17.8238C3.75041 15.8939 7.43234 13.9624 11.1144 12.0313L15.3013 9.83649C15.9991 9.47057 16.6968 9.10445 17.3942 8.73796C18.6759 8.06454 19.9547 7.38517 21.2358 6.71065C22.1325 6.23852 23.031 5.77013 23.9287 5.29983C23.9531 5.28705 23.9763 5.27162 24 5.25744ZM17.0742 19.5981C14.0382 21.2789 10.9462 21.4259 7.7758 20.0474C7.46505 23.0691 7.15437 26.0898 6.84283 29.1193C6.87483 29.1072 6.89585 29.0996 6.91658 29.0913C7.59809 28.8205 8.27973 28.5499 8.96117 28.2787C10.0927 27.8283 11.2244 27.3783 12.355 26.9252C12.4241 26.8975 12.4801 26.9019 12.5464 26.9285C13.3919 27.2682 14.2383 27.6061 15.0847 27.9436C15.9292 28.2805 16.7742 28.6166 17.6189 28.953C17.7629 29.0102 17.9069 29.0669 18.0579 29.1267C17.7291 25.9418 17.4014 22.7678 17.0742 19.5981ZM12.61 0.0207244C14.5625 0.151632 16.3384 0.797943 17.9338 1.96788C17.9456 1.97655 17.9569 1.98581 17.9749 1.99991C17.9483 2.01534 17.9277 2.02842 17.9063 2.03966C17.318 2.34849 16.7293 2.65658 16.1416 2.96673C16.0947 2.99156 16.059 2.99465 16.0109 2.9674C15.2287 2.52465 14.398 2.2203 13.5209 2.05435C12.8283 1.92322 12.13 1.8826 11.4265 1.93431C10.4359 2.00719 9.48783 2.25188 8.58315 2.67238C7.63464 3.11322 6.79381 3.71567 6.06542 4.48194C5.11606 5.48065 4.4421 6.64956 4.04235 7.98596C3.88637 8.50724 3.78689 9.04035 3.72811 9.5822C3.6649 10.1646 3.6674 10.7473 3.71671 11.3303C3.72447 11.4223 3.73808 11.5136 3.74991 11.6124C3.77849 11.5987 3.80314 11.5877 3.82708 11.5751C5.66388 10.6121 7.50139 9.65052 9.33705 8.68531C11.467 7.56533 13.5945 6.44056 15.7245 5.3208C18.4708 3.87706 21.2186 2.43627 23.9658 0.994304C23.9769 0.988501 23.9886 0.983873 24 0.978657V3.11806C22.3351 3.99137 20.6702 4.86446 19.0054 5.73791C17.1897 6.69048 15.3735 7.64239 13.5585 8.59643C9.0662 10.9579 4.57436 13.3204 0.0823038 15.6824C0.0585039 15.6949 0.0339201 15.7058 0.00164063 15.7214V15.6372C0.00164063 14.9784 0.00263823 14.3195 0 13.6606C0 13.5991 0.0195262 13.5709 0.0711877 13.5443C0.350801 13.4001 0.635046 13.2636 0.904968 13.1019C1.53531 12.724 1.85419 12.1517 1.85134 11.3981C1.85012 11.0729 1.82027 10.7476 1.82362 10.4225C1.84449 8.40807 2.36788 6.54326 3.42277 4.84521C4.52968 3.06341 6.02971 1.74853 7.90449 0.889182C8.70592 0.521803 9.54213 0.271888 10.4079 0.130475C11.1376 0.0112479 11.8723 -0.0287149 12.61 0.0207244Z" fill="#11181C"/>
</svg>
